<svg width="682" height="669" viewBox="0 0 682 669" fill="none" xmlns="http://www.w3.org/2000/svg">
<mask id="mask0_331_144" style="mask-type:alpha" maskUnits="userSpaceOnUse" x="0" y="0" width="682" height="669">
<path d="M317.164 1.1001C182.231 10.3001 65.0309 99.5001 19.1642 228.167C12.0976 247.633 5.56424 274.7 2.49757 296.433C-0.569098 317.367 -0.835765 362.567 1.8309 383.767C15.4309 492.567 78.4976 587.233 173.431 641.367C195.298 653.9 229.164 668.033 237.831 668.3C244.631 668.433 250.364 665.633 253.298 660.7C255.698 656.7 255.831 654.033 255.431 625.1C255.298 607.9 255.031 593.633 254.898 593.633C254.764 593.5 249.831 594.167 243.964 595.233C208.898 600.967 177.698 593.1 157.831 573.233C150.098 565.5 147.698 561.767 139.964 545.767C127.431 519.633 120.098 509.633 105.964 499.367C95.5642 491.9 89.9642 486.3 89.9642 483.5C89.9642 476.833 106.098 474.567 118.898 479.5C135.564 485.767 146.631 495.367 158.764 513.9C175.564 539.367 196.631 550.7 223.431 548.7C233.698 547.9 254.498 542.167 256.098 539.633C256.498 538.833 257.831 534.567 258.764 530.167C261.298 519.5 267.831 506.033 273.431 499.767C278.764 493.767 279.298 494.167 261.964 491.767C248.231 489.9 224.364 483.767 212.898 479.233C164.631 460.167 136.764 424.567 126.364 368.7C123.031 350.833 123.031 306.967 126.364 293.1C131.164 273.233 140.098 255.1 152.364 240.033L158.098 232.967L156.098 226.7C149.164 205.233 149.964 177.367 158.231 151.5C160.898 143.367 161.431 142.567 165.431 141.767C179.698 139.1 212.364 150.833 242.231 169.233L255.298 177.367L266.898 174.7C294.098 168.433 306.631 167.1 340.631 167.1C374.764 167.1 387.164 168.433 414.364 174.7L426.098 177.367L436.364 170.967C456.764 158.167 476.898 148.7 490.631 145.233C501.964 142.433 511.831 141.1 516.098 141.9C519.831 142.567 520.498 143.5 523.031 151.5C530.631 175.233 531.964 205.367 526.098 223.767L523.298 232.433L525.964 235.767C539.031 251.9 549.298 271.633 554.231 290.3C557.698 303.367 559.031 336.7 556.764 355.367C546.898 436.433 502.498 480.033 417.964 491.767C401.964 493.9 402.231 493.767 406.898 498.833C413.031 505.233 418.898 516.7 422.231 528.567C424.898 538.433 425.164 542.7 425.831 599.1C426.764 664.7 426.498 663.367 434.631 666.7C440.898 669.367 448.231 668.433 461.298 663.233C507.698 645.233 544.231 621.767 579.164 587.367C634.764 532.7 669.698 461.767 679.431 383.767C682.098 362.567 681.831 317.367 678.764 296.433C655.698 133.9 525.298 12.3001 362.364 1.1001C340.898 -0.366571 339.031 -0.366571 317.164 1.1001Z" fill="black"/>
</mask>
<g mask="url(#mask0_331_144)">
<rect x="-393" y="-372" width="1467" height="1298" fill="#143D66"/>
</g>
</svg>
