<svg width="683" height="683" viewBox="0 0 683 683" fill="none" xmlns="http://www.w3.org/2000/svg">
<path d="M162.433 1.29991C140.167 3.96658 113.9 12.6332 93.9 23.9666C42.1667 53.6999 8.03333 105.433 1.5 164.233C-0.5 181.967 -0.5 500.367 1.5 518.1C10.9667 603.833 78.7 671.567 164.433 681.033C182.167 683.033 500.567 683.033 518.3 681.033C604.033 671.567 671.767 603.833 681.233 518.1C683.233 500.367 683.233 181.967 681.233 164.233C671.767 78.4999 604.033 10.7666 518.3 1.29991C502.567 -0.433423 177.767 -0.433423 162.433 1.29991ZM532.167 44.0999C559.9 51.6999 581.233 63.8332 599.9 82.6332C618.7 101.3 630.833 122.633 638.567 150.367L642.033 163.167V341.167V519.167L638.567 531.967C630.833 559.7 618.7 581.033 599.9 599.7C581.233 618.5 559.9 630.633 532.167 638.367L519.367 641.833H341.367H163.367L150.567 638.367C122.833 630.633 101.5 618.5 82.8333 599.7C64.0333 581.033 51.9 559.7 44.1667 531.967L40.7 519.167V341.167V163.167L44.1667 150.367C51.9 122.633 64.0333 101.3 82.7 82.6332C104.833 60.4999 134.033 45.8332 164.7 41.2999C169.1 40.6332 250.7 40.2332 346.033 40.3666L519.367 40.4999L532.167 44.0999Z" fill="#143D66"/>
<path d="M526.033 88.7665C493.5 93.2998 471.367 124.9 479.233 155.566C484.7 177.3 498.567 191.033 520.167 196.633C556.833 205.966 592.833 172.766 586.7 135.3C583.367 114.366 568.033 96.7665 548.033 90.7665C542.167 89.0331 531.367 88.0998 526.033 88.7665ZM540.967 131.3C548.167 135.833 549.367 146.9 543.367 153.166C538.433 158.233 532.433 159.433 526.3 156.5C516.967 152.1 514.967 139.833 522.433 132.9C527.9 127.7 534.3 127.166 540.967 131.3Z" fill="#143D66"/>
<path d="M315.633 156.5C241.9 166.633 179.633 222.1 160.833 294.767C144.3 358.367 162.833 425.567 209.9 472.633C283.233 545.967 399.5 545.967 472.833 472.633C546.167 399.3 546.167 283.033 472.833 209.7C430.7 167.7 374.3 148.5 315.633 156.5ZM362.7 196.5C394.7 201.3 421.9 215.033 444.7 237.833C502.167 295.167 502.167 387.167 444.7 444.5C387.367 501.967 295.367 501.967 238.033 444.5C180.567 387.167 180.567 295.167 238.033 237.833C271.233 204.633 316.833 189.433 362.7 196.5Z" fill="#143D66"/>
</svg>
