<svg width="547" height="547" viewBox="0 0 547 547" fill="none" xmlns="http://www.w3.org/2000/svg">
<path d="M52.3377 1.2436C34.2043 4.71027 14.7377 19.9103 6.47101 37.2436C0.337681 50.3103 -1.52899 64.4436 1.27101 77.3769C4.33768 91.1103 9.27101 100.977 17.671 110.044C58.471 153.91 130.338 125.644 130.338 65.6436C130.338 23.7769 93.4043 -6.62306 52.3377 1.2436Z" fill="#143D66"/>
<path d="M382.338 175.644C376.071 176.977 368.071 179.11 364.338 180.31C342.071 188.044 319.671 205.11 307.671 223.91L302.338 231.91L302.071 206.844L301.671 181.644L247.404 181.244L193.004 180.977V363.644V546.31H249.671H306.338V448.577C306.338 351.244 307.004 335.377 311.138 318.977C316.071 299.777 327.804 284.444 342.604 277.644C357.804 270.71 382.204 269.91 397.538 275.644C412.338 281.244 423.404 294.977 428.204 313.777C432.204 329.377 433.004 350.977 433.004 447.91V544.977H489.671H546.338V438.577C546.338 328.577 545.538 304.31 540.871 278.31C529.938 216.31 498.471 183.51 441.404 174.977C423.404 172.31 396.604 172.577 382.338 175.644Z" fill="#143D66"/>
<path d="M9.00433 363.644V546.31H65.671H122.338V363.644V180.977H65.671H9.00433V363.644Z" fill="#143D66"/>
</svg>
